<svg xmlns="http://www.w3.org/2000/svg" viewBox="0 0 48 48" fill="none" aria-hidden="true">
  <rect width="48" height="48" rx="12" fill="#2563EB"/>
  <path d="M24 10C18 10 14 16 14 22C14 28 18 34 24 38C30 34 34 28 34 22C34 16 30 10 24 10Z" fill="white" opacity="0.9"/>
  <path d="M20 22C20 19.8 21.8 18 24 18C26.2 18 28 19.8 28 22C28 24.2 26.2 26 24 26C21.8 26 20 24.2 20 22Z" fill="#2563EB"/>
  <circle cx="18" cy="16" r="2" fill="white" opacity="0.7"/>
  <circle cx="30" cy="14" r="1.5" fill="white" opacity="0.6"/>
  <circle cx="32" cy="26" r="1.5" fill="white" opacity="0.5"/>
</svg>
